<svg id="Layer_1" data-name="Layer 1" xmlns="http://www.w3.org/2000/svg" viewBox="0 0 213.63 213.33"><defs><style>.cls-1{fill:none;stroke:#000;stroke-miterlimit:10;stroke-width:10px;}</style></defs><path d="M140.84,81.45c-5,0-10.09,0-15.14,0-1,0-1.28-.3-1.25-1.29.07-2.36,0-4.72,0-7.08,0-.73.22-1,1-1q15.38,0,30.76,0c.74,0,1,.25.94,1,0,2.41-.05,4.81,0,7.21,0,.9-.23,1.16-1.14,1.16C150.94,81.42,145.89,81.45,140.84,81.45Z"/><path d="M168.68,111.39a28.39,28.39,0,0,0-1.72-8c-2.2-5.75-5.71-10.47-11.28-13.35a31.75,31.75,0,0,0-22.3-2.49c-8.42,2-14.55,6.87-17.79,15-3,7.35-3.06,15-1.58,22.67a22.06,22.06,0,0,0,8.58,14.11c6.58,4.89,14,6.66,22.06,6s14.73-3.52,19.73-10a18.5,18.5,0,0,0,3.57-7c.19-.77,0-1-.84-1q-6.54.06-13.09,0a1.46,1.46,0,0,0-1.45.8,9.63,9.63,0,0,1-2.92,3.3c-4.41,3-11.57,3-16.16-.07-3.66-2.42-5-6.07-5.48-10.2-.35-1.32-.23-1.47,1.38-1.47h36.92c2.54,0,2.38.16,2.36-2.31a2,2,0,0,1,.24-1.27v-4.33C168.67,111.79,168.69,111.58,168.68,111.39Zm-16.12-1c-3.88,0-7.77,0-11.65,0s-7.52,0-11.28,0c-1.21,0-1.35-.33-1.08-1.38a18,18,0,0,1,2.55-5.9c3.47-5.13,11.14-5.19,15.24-3.53,4.42,1.8,6.61,5.2,7.19,9.81C153.64,110.32,153.3,110.44,152.56,110.43Z"/><path d="M108,118a16.69,16.69,0,0,0-6.08-11.6,22.06,22.06,0,0,0-5.35-3,2.26,2.26,0,0,1,.24-.21c.38-.23.76-.44,1.15-.66a14.26,14.26,0,0,0,7.37-10,23,23,0,0,0,.28-6.82c-.66-6.44-3.76-11.28-9.59-14.26a29.92,29.92,0,0,0-13.74-2.84c-11.77,0-23.54,0-35.32,0-1,0-1.16.29-1.16,1.21q0,36.33,0,72.66c0,1,.3,1.17,1.21,1.17q16.51,0,33,0a58.44,58.44,0,0,0,9.44-.75,21.28,21.28,0,0,0,13.33-7.19A22.38,22.38,0,0,0,108,118ZM61,82.57c0-.74.21-1,.95-.95,6.49.12,13-.21,19.46.22a23.62,23.62,0,0,1,4.25.73,6,6,0,0,1,4.75,5,10,10,0,0,1-.58,6.24c-1.16,2.53-3.53,3.33-6,3.94-2.6.64-5.26.42-7.89.45-1.44,0-2.89,0-4.33,0-3.2,0-6.41,0-9.61,0-.76,0-1-.17-1-1Q61,89.9,61,82.57ZM91.88,123c-.9,4.3-3.95,6.86-8.62,7.37a44.73,44.73,0,0,1-4.91.25c-5.4,0-10.8,0-16.2,0-.85,0-1.18-.13-1.17-1.09.05-6,0-11.92,0-17.88,0-.87.28-1.06,1.09-1,3.28,0,6.56,0,10.54,0,3.22.13,7.14-.26,11,.27A12.64,12.64,0,0,1,88,112.22,7.6,7.6,0,0,1,92,118,13.39,13.39,0,0,1,91.88,123Z"/><rect class="cls-1" x="9.59" y="9.29" width="195.56" height="195.56" rx="26.22"/></svg>