<svg id="Layer_1" data-name="Layer 1" xmlns="http://www.w3.org/2000/svg" viewBox="0 0 213.63 213.33"><defs><style>.cls-1{fill:#3d3d3d;}</style></defs><path class="cls-1" d="M180.63,212.54H33A31.26,31.26,0,0,1,1.78,181.32V33.69A31.26,31.26,0,0,1,33,2.47H180.63a31.26,31.26,0,0,1,31.22,31.22V181.32A31.26,31.26,0,0,1,180.63,212.54ZM33,12.47A21.24,21.24,0,0,0,11.78,33.69V181.32A21.24,21.24,0,0,0,33,202.54H180.63a21.24,21.24,0,0,0,21.22-21.22V33.69a21.24,21.24,0,0,0-21.22-21.22Z"/><path class="cls-1" d="M52.35,103.25a10.29,10.29,0,0,1,5.36-3.78L150,64.13c1.39-.53,2.77-1.09,4.17-1.57,4.06-1.41,7,.7,7.07,5,0,2.65-.82,5.17-1.36,7.73Q153.19,107,146.4,138.66c-.62,3-1.26,5.89-1.89,8.83a10.21,10.21,0,0,1-1.17,3.07,4.41,4.41,0,0,1-5.18,2.16,9.27,9.27,0,0,1-3.34-1.55q-11.58-8.5-23.17-17c-1.45-1.06-1-1.09-2.28.12q-5.87,5.56-11.69,11.16a6.22,6.22,0,0,1-3.55,1.78c-.55.07-.83,0-.78-.7.43-5.8.82-11.6,1.23-17.4.15-2.12.34-4.24.45-6.36a2.06,2.06,0,0,1,.8-1.52Q118.39,101,140.94,80.77c.16-.14.33-.27.48-.42.42-.46,1.11-.89.68-1.6s-1.15-.45-1.76-.34a6.54,6.54,0,0,0-2.21,1Q110,97.06,81.82,114.68a1.71,1.71,0,0,1-1.56.29c-8-2.52-16-5-23.92-7.47a6.48,6.48,0,0,1-4-2.76Z"/></svg>