<svg id="Layer_1" data-name="Layer 1" xmlns="http://www.w3.org/2000/svg" viewBox="0 0 213.63 213.33">
<defs><style>.cls-1{fill:#3d3d3d;}
</style></defs><path class="cls-1" 
d="M180.63,211.33H33A31.26,31.26,0,0,1,1.78,180.11V32.48A31.26,31.26,0,0,1,33,1.26H180.63a31.26,31.26,0,0,1,31.22,31.22V180.11A31.26,31.26,0,0,1,180.63,211.33ZM33,11.26A21.24,21.24,0,0,0,11.78,32.48V180.11A21.24,21.24,0,0,0,33,201.33H180.63a21.24,21.24,0,0,0,21.22-21.22V32.48a21.24,21.24,0,0,0-21.22-21.22Z"/><path class="cls-1" d="M106,151.87a43,43,0,1,1,43-43A43.07,43.07,0,0,1,106,151.87Zm0-76.07a33,33,0,1,0,33,33A33.07,33.07,0,0,0,106,75.8Z"/>
<circle class="cls-1" cx="165.43" cy="54.14" r="10.13"/></svg>