<svg id="Layer_1" data-name="Layer 1" xmlns="http://www.w3.org/2000/svg" viewBox="0 0 213.63 213.33"><defs><style>.cls-1{fill:#3d3d3d;}</style></defs><path class="cls-1" d="M181,212.12H33.34A31.26,31.26,0,0,1,2.11,180.9V33.27A31.26,31.26,0,0,1,33.34,2.05H181a31.26,31.26,0,0,1,31.22,31.22V180.9A31.25,31.25,0,0,1,181,212.12ZM33.34,12.05A21.25,21.25,0,0,0,12.11,33.27V180.9a21.25,21.25,0,0,0,21.23,21.22H181a21.24,21.24,0,0,0,21.22-21.22V33.27A21.24,21.24,0,0,0,181,12.05Z"/><polygon class="cls-1" points="74.36 142.88 74.36 71.29 145.94 107.09 74.36 142.88"/></svg>